<?xml version="1.0" encoding="UTF-8"?>
<!DOCTYPE svg PUBLIC "-//W3C//DTD SVG 1.1//EN" "http://www.w3.org/Graphics/SVG/1.1/DTD/svg11.dtd">
<!-- Creator: CorelDRAW 2020 (64 Bit) -->
<svg xmlns="http://www.w3.org/2000/svg" xml:space="preserve" width="39.1958mm" height="39.1954mm" version="1.1" style="shape-rendering:geometricPrecision; text-rendering:geometricPrecision; image-rendering:optimizeQuality; fill-rule:evenodd; clip-rule:evenodd"
viewBox="0 0 256.13 256.12"
 xmlns:xlink="http://www.w3.org/1999/xlink"
 xmlns:xodm="http://www.corel.com/coreldraw/odm/2003">
 <defs>
  <style type="text/css">
   <![CDATA[
    .fil0 {fill:white}
   ]]>
  </style>
 </defs>
 <g id="Camada_x0020_1">
  <metadata id="CorelCorpID_0Corel-Layer"/>
  <g id="_1431787047696">
   <path class="fil0" d="M17.08 128.06c0,-14.74 3.91,-32.59 9.78,-45.18 6.23,-13.37 12.85,-23.07 22.64,-32.86 2.55,-2.55 4.1,-4.08 6.91,-6.44 13.76,-11.56 28.14,-18.95 46.05,-23.32 15.46,-3.77 34.1,-4.29 49.53,-0.43 14.83,3.71 26.39,8.2 38.73,16.76 45.09,31.25 61.44,90.91 36.78,140.2l-5.2 9.74c-0.86,1.41 -1.49,1.83 -1.91,3.42 -1.34,-0.36 -7.28,-6.01 -8.67,-7.34 -6.96,-6.63 -20.36,-14.83 -29.03,-19 -26.22,-12.59 -56.57,-15.34 -85.57,-8.36 -11.53,2.77 -24.11,7.97 -34.05,13.98 -1.77,1.07 -3.25,1.9 -5,3 -4.21,2.63 -14.58,10.73 -17.91,14.11 -1.4,1.42 -2.34,3.06 -4.4,3.61 -0.4,-1.5 -2.54,-4.45 -3.51,-6.09 -1.32,-2.23 -2.32,-4.51 -3.42,-6.71 -4.72,-9.44 -8.17,-19.73 -9.99,-30.57 -0.91,-5.44 -1.75,-12.56 -1.75,-18.52zm-17.08 -5.34c0,18.27 0.87,32.28 7.63,49.47 0.79,2.01 1.27,3.51 2.05,5.42 3.33,8.16 8.82,17.55 13.8,24.62 2.17,3.07 4.01,5.53 6.53,8.41 10.95,12.57 22.86,22.75 37.77,30.53 0.82,0.43 1.51,0.89 2.4,1.33 14.6,7.3 34.76,13.61 52.02,13.61l10.67 0c23.09,0 42.81,-8.11 59.95,-17.42 3.31,-1.8 6.52,-4.01 9.42,-6.05 11.1,-7.85 19.17,-16.19 27.68,-26.75l3.35 -4.66c20.48,-27.76 27.97,-69.01 19.35,-103.28 -2.28,-9.07 -4.62,-15.12 -7.91,-23.04 -6.32,-15.22 -17.95,-29.22 -29.25,-40.65 -1.62,-1.64 -2.67,-2.21 -4.27,-3.73 -6.86,-6.54 -20,-14.17 -28.5,-18.46 -11.79,-5.94 -32.88,-12.09 -50.34,-12.09 -15.46,0 -20.64,0.02 -36.18,3.84 -25.19,6.18 -49.32,21.63 -65.9,41.36 -2.61,3.1 -4.48,5.44 -6.78,8.7l-6.1 9.38c-9.93,16.36 -17.38,40.67 -17.38,59.46z"/>
   <path class="fil0" d="M76.84 83.24c0,9.58 0.71,15.73 4.79,24.02 2.27,4.6 6.39,10.89 10.02,14.52l6.44 5.29c2.67,1.96 4.57,2.97 7.73,4.55 13.32,6.66 30.86,6.72 44.12,0.18 16.71,-8.24 29.34,-24.77 29.34,-44.3 0,-13.36 -3.32,-25.53 -11.88,-35.08 -5.62,-6.28 -8.99,-9.25 -17.11,-13.31 -13.32,-6.66 -30.86,-6.72 -44.12,-0.18 -4.6,2.27 -10.89,6.39 -14.52,10.02 -1.04,1.04 -1.47,1.93 -2.68,3.19 -1.16,1.21 -1.83,2.15 -2.84,3.56 -5.13,7.1 -9.3,17.68 -9.3,27.52z"/>
  </g>
 </g>
</svg>
