<?xml version="1.0" encoding="UTF-8"?>
<!DOCTYPE svg PUBLIC "-//W3C//DTD SVG 1.1//EN" "http://www.w3.org/Graphics/SVG/1.1/DTD/svg11.dtd">
<!-- Creator: CorelDRAW 2020 (64 Bit) -->
<svg xmlns="http://www.w3.org/2000/svg" xml:space="preserve" width="40.8888mm" height="40.8889mm" version="1.1" style="shape-rendering:geometricPrecision; text-rendering:geometricPrecision; image-rendering:optimizeQuality; fill-rule:evenodd; clip-rule:evenodd"
viewBox="0 0 277.95 277.95"
 xmlns:xlink="http://www.w3.org/1999/xlink"
 xmlns:xodm="http://www.corel.com/coreldraw/odm/2003">
 <defs>
  <style type="text/css">
   <![CDATA[
    .fil0 {fill:white}
   ]]>
  </style>
 </defs>
 <g id="Camada_x0020_1">
  <metadata id="CorelCorpID_0Corel-Layer"/>
  <path class="fil0" d="M50.49 226.37c0.77,0.18 8.43,4.13 13.23,5.77 31.66,10.85 87.77,11.11 118.85,-2.36 2.67,-1.15 3.32,-2.33 6.9,-2.33l0 17.91c0,10.53 -33.67,16.99 -42.24,18.01 -27.09,3.25 -68.71,2.81 -91.28,-10.98 -8.01,-4.89 -5.45,-11.13 -5.45,-26.04zm24.53 -226.37l12.93 0c20.12,0 62.96,4.89 74.14,23.03 3.97,6.44 2.4,19.85 2.4,29.63 4.29,-0.36 9.69,-1.41 14.11,-1.63 23.84,-1.18 45.56,-0.64 68.29,5.54 10.13,2.75 31.03,11.14 31.05,23.76l0 116.78c-0.02,3.73 -2.31,7.22 -4.19,9.33 -10.52,11.79 -32.59,17.26 -47.38,18.85 -3.75,0.41 -7.65,0.73 -11.71,1.32l-12.18 0.85c0,17.12 2.27,25.48 -9.61,34.36 -14.3,10.69 -41.39,15.33 -66.26,16.12l-15.67 0c-8.08,-0.27 -15.5,-0.94 -21.63,-1.92 -13.23,-2.13 -29.57,-5.76 -40.37,-12.83 -4.14,-2.71 -10.95,-8.69 -10.95,-15.11l0 -41.26c0,-5.31 3.83,-9.03 6.64,-11.82 4.23,-4.19 8.8,-5.5 10.73,-7.18 -5.86,-0.13 -20.63,-3.68 -26.53,-5.5 -10.3,-3.17 -28.83,-10.91 -28.84,-23.27l0 -129.22c0.01,-6.94 6.58,-12.56 11.09,-15.5 14.39,-9.36 34.78,-11.93 51.96,-13.72 3.92,-0.41 7.93,-0.57 11.96,-0.63zm-23.99 208.46c0,-7.38 23.9,-13.95 29.08,-14.89 6.3,-1.15 12.4,-2.29 18.78,-2.94 3.65,-0.37 6.51,-0.65 10.23,-0.63 1.72,0.01 3.75,0.1 5.43,0.01 7.47,-0.4 0.63,-0.84 10.34,-0.03l15.67 0.61c11.28,0.86 48.69,7.96 48.69,17.87 0,9.89 -36.65,16.72 -47.65,17.83 -8.06,0.81 -8.9,0.41 -15.68,0.61 -5.83,0.17 -1.23,1.13 -10.38,0.1 -1.68,-0.19 -3.64,-0.09 -5.35,-0.08 -10.96,0.05 -19.28,-1.68 -29.63,-3.48 -5.24,-0.91 -29.54,-7.54 -29.54,-14.97zm136.8 -19c17.43,0 25.71,0.21 42.5,-2.56 9.97,-1.65 18.03,-3.68 26.92,-7.28 2.47,-1 5.27,-2.46 7.67,-3.73l0.04 18.5c0,3.36 0.02,2.99 -1.77,4.74 -4.25,4.16 -10.5,6.49 -16.92,8.59 -6.3,2.06 -13.26,3.58 -20.4,4.57l-23.38 2.14c0,-10.12 -1.47,-15.64 -9.22,-21.18 -1.45,-1.03 -4.54,-2.57 -5.44,-3.79zm-58.63 -11.94l-2.71 0c0.24,-2.79 1.16,-1.35 2.71,0zm-116.17 -45.6c2.33,0.54 4.46,2.04 6.69,3.08 16.43,7.66 44.4,10.49 62.79,10.49 6.04,0 27.79,-1.2 30.94,-2.71l0 31.49 -16.68 1.78c-7.06,0.92 -28.77,0.27 -34.85,-0.19 -11.89,-0.91 -44.74,-7.4 -48.48,-16.12 -0.97,-2.25 -0.42,-24.35 -0.42,-27.81zm113.46 5.97c9.42,4.99 18.54,8.1 30.8,10.46 5.09,0.98 12.43,2.11 18.1,2.53l15.19 0.56c6.03,0.08 -0.19,0.85 9.24,0.05 1.62,-0.14 3.74,-0.04 5.4,-0.03 12.99,0.06 32.92,-3.31 44.99,-7.12 2.62,-0.83 4.84,-1.75 7.51,-2.8 2.89,-1.14 4.73,-2.33 7.21,-3.65 0,4.34 -0,8.69 0,13.03 0,5.57 0.96,8.45 -2.38,11.19 -14.03,11.53 -47.1,14.2 -66.64,14.49 -19.61,0.29 -39.78,-2.11 -57.94,-9.46 -12.91,-5.23 -11.47,-8.54 -11.47,-15.67 0,-4.52 0,-9.05 0,-13.57zm0 -38c2.24,1.18 4.33,2.52 6.81,3.5 19.42,7.69 41.12,10.61 62.13,10.61 6.46,0 13.47,-0.73 19.56,-1.07 13.66,-0.76 29.93,-4.14 42.41,-9.16 2.54,-1.02 5.13,-2.79 7.51,-3.34 0,4.34 -0,8.69 0,13.03 0,7.06 1.93,10.49 -10.93,15.67 -12.32,4.96 -31.35,9.17 -44.42,9.32 -17.08,0.19 -18.81,1.21 -38.61,-1.06 -11.17,-1.28 -33.28,-5.83 -41.35,-12.94 -3.89,-3.43 -3.13,-3.79 -3.12,-10.45 0.01,-4.71 0,-9.41 0,-14.12zm-113.46 -12.49c1.89,1 4.32,2.33 6.06,3.16 3.75,1.79 9.57,3.57 13.7,4.76 2.8,0.8 5.23,1.21 7.92,1.85 16.88,4.01 48.19,5.21 67.02,2.42 1.99,-0.3 4.01,-0.75 5.72,-0.79l0 29.86c0,2.5 -8.88,2.3 -13.34,2.95 -20.31,2.93 -53.2,-0.77 -69.25,-6.13 -4.88,-1.63 -15.82,-5.96 -17.49,-10.2 -1.06,-2.69 -0.35,-23.2 -0.35,-27.88zm113.46 -5.43c0,-3.45 8.06,-7.7 11.16,-8.93 22.95,-9.09 40.58,-9.53 65.39,-9.53 16.44,0 35.54,3.27 50.42,9.3 3.16,1.28 11.47,5.35 11.47,9.16 0,7.05 -21.43,13.48 -29,14.97 -29.99,5.91 -68.51,6.06 -96.94,-5.2 -3.49,-1.38 -12.48,-5.58 -12.48,-9.77zm-13.03 0.54l0 3.26c-3.81,0.08 -15.25,2.22 -23.89,2.16 -3.69,-0.03 -5.53,0.74 -8.66,0.57 -19.45,-1.02 -49.35,-2.97 -64.87,-14.43 -2.53,-1.86 -3.03,-2.09 -3.04,-6.19 -0.01,-5.98 0.03,-11.96 0.03,-17.94l14.72 5.91c12.04,4.03 31.54,7.2 44.45,7.12 4.32,-0.03 6.41,0.6 10.32,0.58 10.17,-0.06 27.89,-1.77 37.68,-3.6 6.36,-1.19 10.8,-2.56 16.49,-4.14 4.99,-1.38 10.41,-4.1 14.77,-6.41l0 5.97c-14.18,3.3 -38,10.76 -38,27.14zm-31.49 -32.03c-20.01,0 -46.9,-2.95 -63.69,-12.85 -19.48,-11.49 21.54,-20.35 28.99,-21.85 26.56,-5.36 67.53,-3.86 93.11,6.7 7.91,3.27 16.35,8.69 6.19,14.97 -16.16,9.98 -45.58,13.04 -64.59,13.04z"/>
 </g>
</svg>
