<?xml version="1.0" encoding="UTF-8"?>
<!DOCTYPE svg PUBLIC "-//W3C//DTD SVG 1.1//EN" "http://www.w3.org/Graphics/SVG/1.1/DTD/svg11.dtd">
<!-- Creator: CorelDRAW 2020 (64 Bit) -->
<svg xmlns="http://www.w3.org/2000/svg" xml:space="preserve" width="30.0467mm" height="32.9981mm" version="1.1" style="shape-rendering:geometricPrecision; text-rendering:geometricPrecision; image-rendering:optimizeQuality; fill-rule:evenodd; clip-rule:evenodd"
viewBox="0 0 152.84 167.86"
 xmlns:xlink="http://www.w3.org/1999/xlink"
 xmlns:xodm="http://www.corel.com/coreldraw/odm/2003">
 <defs>
  <style type="text/css">
   <![CDATA[
    .fil0 {fill:white}
   ]]>
  </style>
 </defs>
 <g id="Camada_x0020_1">
  <metadata id="CorelCorpID_0Corel-Layer"/>
  <g id="_1431743218928">
   <path class="fil0" d="M106.31 130.05c0,6.34 1.45,11.36 6.13,15.48 3.05,2.68 8.39,5.18 13.81,5.3l0 10.39 -27.01 0c-0.14,-6.34 -8.22,-13.3 -14.96,-13.3l-2.49 0c-6.73,0 -14.82,6.96 -14.96,13.3l-27.01 0 0 -10.39c5.63,-0.47 11.33,-1.96 14.45,-5.08 6.64,-6.64 8.57,-15.1 3.35,-23.11 -1.66,-2.54 -4.01,-4.58 -6.85,-6.03 -7.79,-3.97 -10.64,0.25 -21.47,-4.29 -9.82,-4.12 -12.89,-12.79 -16.79,-21.85 -1.12,-2.6 -3.26,-6.44 -3.86,-9.02l40.72 0c9.9,0 10.39,1.03 10.39,-6.65l84.76 0c-0.16,1.95 -2.01,6.73 -2.74,8.9 -1.62,4.83 -4.76,3.71 -7.02,4.62 -2.1,0.84 -10.66,19.41 -12.27,22.63 -2.79,5.59 -0.96,2.82 -6.48,5.15 -4.62,1.95 -9.72,7.62 -9.72,13.96zm-4.15 -94.73c-0.46,-0.96 -0.67,-1.88 -1.09,-3.07 -0.48,-1.39 -0.67,-1.62 -1.15,-3 -0.67,-1.94 -1.87,-4.39 -1.92,-6.39 1.96,-0.16 3.67,-1.11 5.35,-1.71 1.71,-0.62 3.36,-1.13 5.21,-1.85l21.37 -7.71c12.6,-4.15 10.8,-6.13 13.4,1.67 0.6,1.81 1.86,4.19 2.03,6.28 -1.15,0.77 -40.56,15.57 -43.21,15.79zm-48.61 -17.45c1.36,-0.32 2.56,-0.77 3.74,-1.25 1.32,-0.53 2.5,-0.85 3.98,-1.42 3.07,-1.19 21.63,-8.09 23.44,-8.13 0.53,2.29 1.4,3.96 2.13,6.18 0.69,2.11 1.4,3.84 2.17,6.13l13.56 37.13 -31.16 11.22c-0.27,-1.16 -0.65,-1.77 -1.09,-3.06l-16.77 -46.8zm-7.06 -0.42c0,2.22 1.14,4.51 1.81,6.49 0.75,2.22 1.54,4.37 2.29,6.44 1.5,4.15 3.06,8.46 4.56,12.47 1.6,4.29 2.92,8.14 4.47,12.56 0.77,2.21 1.51,4.2 2.36,6.37 0.87,2.21 1.42,4.37 2.37,6.35 -10.58,0 -11.22,-1.18 -11.22,6.65l-49.86 0c-7.05,0 -0.69,10.36 0.56,13.15 5.22,11.74 6.08,17.05 14.5,25.39 3.72,3.69 11.55,7.7 18.6,7.99 5.82,0.24 11.16,-0.05 14.54,5.4 3.7,5.97 0.53,13.82 -5.64,15.97 -5.87,2.05 -12.64,0.42 -12.64,5.22l0 16.62c0,2.01 1.31,3.32 3.32,3.32l33.24 0c4.39,0 2.59,-4.46 4.83,-8.46 3.32,-5.93 16.14,-8.45 18.41,5.16 0.34,2.02 1.03,3.3 3.34,3.3l33.24 0c2.01,0 3.32,-1.31 3.32,-3.32 0,-19.77 1.84,-19.34 -5.64,-20.54 -5.09,-0.82 -9.06,-1.44 -12.06,-5.81 -3.37,-4.91 -2.86,-11.67 2.07,-15.04 3.09,-2.12 7.02,-0.94 8.82,-3.64 1.38,-2.07 2.96,-5.87 4.17,-8.29l7.73 -15.54c1.7,-2.8 3.88,-0.23 8.33,-5.8 1.81,-2.27 6.51,-16.49 6.51,-18.42 0,-4.59 -6.3,-3.32 -12.88,-3.32l-48.61 0c4.01,-2.79 17.87,-4.01 17.87,-10.39 0,-5.98 -3.16,-9.73 -4.57,-15.79 1.74,-0.84 4.31,-1.61 6.39,-2.33l31.99 -11.64c8.04,-2.71 10.98,-5.96 7.8,-14.34 -2.04,-5.37 -3.53,-15.89 -14.37,-11.76 -2.91,1.11 -5.38,1.84 -8.25,2.97 -3.6,1.43 -31.47,11.62 -33.12,11.76 -0.12,-1.46 -0.89,-3.43 -1.42,-4.81 -0.67,-1.74 -1.1,-3.14 -1.78,-4.87 -1.53,-3.88 -2.2,-6.94 -7.6,-6.94 -2,0 -33.78,11.25 -35.45,12.75 -0.88,0.79 -2.36,3.33 -2.36,4.7z"/>
   <path class="fil0" d="M13.24 57.34c0,4.22 1.36,4.07 6.16,4.65 2.56,0.31 6.07,0.74 8.51,1.05l17.33 1.78c3.67,0 4.27,-4.74 1.67,-6.24 -1.45,-0.84 -28.19,-3.73 -31.17,-3.73 -1,0 -2.49,1.49 -2.49,2.49z"/>
   <path class="fil0" d="M28.2 38.22c0,2.71 5.86,6.38 9.25,9.45 5.94,5.39 10.29,-0.74 4.94,-4.94 -2.15,-1.69 -8.55,-7.83 -10.87,-7.83 -2.01,0 -3.32,1.31 -3.32,3.32z"/>
   <path class="fil0" d="M117.53 58.17c0,5.39 7.78,2.78 10.57,2.26 8.08,-1.53 4.22,-7.24 2.31,-7.24 -3.75,0 -4.9,0.53 -8.01,1.13 -2.57,0.5 -4.87,0.94 -4.87,3.85z"/>
  </g>
 </g>
</svg>
