<?xml version="1.0" encoding="UTF-8"?>
<!DOCTYPE svg PUBLIC "-//W3C//DTD SVG 1.1//EN" "http://www.w3.org/Graphics/SVG/1.1/DTD/svg11.dtd">
<!-- Creator: CorelDRAW 2020 (64 Bit) -->
<svg xmlns="http://www.w3.org/2000/svg" xml:space="preserve" width="44.5907mm" height="44.6051mm" version="1.1" style="shape-rendering:geometricPrecision; text-rendering:geometricPrecision; image-rendering:optimizeQuality; fill-rule:evenodd; clip-rule:evenodd"
viewBox="0 0 328.53 328.64"
 xmlns:xlink="http://www.w3.org/1999/xlink"
 xmlns:xodm="http://www.corel.com/coreldraw/odm/2003">
 <defs>
  <style type="text/css">
   <![CDATA[
    .fil0 {fill:white}
   ]]>
  </style>
 </defs>
 <g id="Camada_x0020_1">
  <metadata id="CorelCorpID_0Corel-Layer"/>
  <g id="_1431735932016">
   <path class="fil0" d="M91.14 213.1l9.47 9.78c2.82,-1.94 7.93,-9.14 11.07,-9.14 4.46,0 7.07,4.35 4.05,7.87 -2.6,3.03 -5.75,4.97 -7.9,8.18 2.45,3.66 15.41,13.72 15.41,17.33 0,2.62 -2.91,7.06 -8.34,7.06 -2.24,0 -26.21,-25.25 -29.69,-28.72 -12.89,-12.89 -12.97,-9.13 8.34,-30.49 2.58,-2.58 3.74,-4.97 7.86,-4.97 2.29,0 5.14,3.72 5.14,6.42 0,2.45 -13.31,13.56 -15.41,16.69zm43.96 115.54l-6.07 0c-7.52,-0.87 -14.27,-4.94 -20.4,-11.07l-81.52 -81.52c-5.23,-5.23 -20.45,-19.28 -23.5,-25.29 -3.47,-6.86 -3.62,-8.79 -3.62,-16.28 0,-6.71 3.43,-12.67 7.05,-17.34 4.47,-5.76 139.89,-140.19 157.74,-158.05 14.06,-14.06 18.68,-19.05 29.56,-19.1l0.1 0c4.59,-0.01 10.29,0.86 18.27,2.3 13.35,2.4 75.34,12.7 81.92,15.64 5.82,2.6 9.74,5.82 13.33,11.06 1.44,2.11 1.79,2.89 2.92,5.43 2.67,6.05 13.06,68.86 15.54,82.03 2.37,12.58 4.72,25.15 -5.01,35.52 -3.99,4.25 -8.05,8.03 -12.21,12.18l-145.7 145.7c-6.03,6.03 -11.83,13.3 -20,16.59 -2.9,1.17 -5.71,1.88 -8.42,2.18zm14.45 -141.85l18.8 5.6c7.49,2.28 1.82,12.38 -0.18,12.38 -2.89,0 -22.55,-5.89 -26.32,-7.7l-3.33 3.73c0.89,2.98 4.92,5.88 7.03,7.98 2.55,2.55 7.22,5.79 7.22,8.83 0,3.11 -3.34,7.06 -7.7,7.06 -2.24,0 -26.21,-25.25 -29.69,-28.72 -9.35,-9.35 -13.04,-9.84 -5.46,-17.33 1.98,-1.96 3.49,-3.47 5.45,-5.46 2.46,-2.49 8.61,-7.91 11.95,-9.23 5.75,-2.26 11.55,-0.83 15.63,2.51 6.04,4.93 10.32,13.48 6.59,20.36zm5.13 -37.23c0.94,3.52 6.85,7.08 8.99,10.27 2.76,-1.85 8.36,-9.63 11.55,-9.63 2.36,0 5.14,1.93 5.14,5.78 0,1.97 -7.95,9.14 -9.63,10.27l10.11 10.43c2.04,-2.98 5.75,-6.07 8.34,-8.66 3.04,-3.04 5.91,-7.54 10.43,-7.54 1.41,0 5.13,2.14 5.13,6.42 0,1.66 -21.82,23.49 -24.14,24.08 -3.54,0.9 -7.05,-4.23 -9.08,-6.26 -2.07,-2.07 -31.61,-30.36 -31.61,-32.57 0,-5.25 5.84,-9.37 11.39,-14.92 2.2,-2.2 10.21,-11.39 13,-11.39 2.52,0 5.72,2.86 6.17,5.4 0.76,4.23 -11.3,11.62 -15.8,18.34zm30.81 -30.81l9.47 9.78c4.06,-2.78 6.89,-9.14 12.35,-9.14 2.21,0 3.67,2.95 4.49,4.49 -1.09,4.67 -7.08,7.75 -9.63,11.55l9.47 9.78c3.91,-2.67 14.48,-16.2 18.13,-16.2 3.18,0 7.83,4.49 5.59,8.09l-15.7 15.82c-11.12,11.12 -7.48,10.17 -29.85,-12.2 -24.61,-24.61 -25.18,-16.84 -1.6,-40.44 1.78,-1.79 7.07,-8.91 11.78,-3.12 5.84,7.18 -8.46,12.54 -14.51,21.57zm66.11 -14.12c-8.23,0 -16.09,-1.54 -21.56,-8.61 -9.29,-11.99 -8.56,-26.84 1.32,-36.03 7.56,-7.03 19.4,-9.77 28.91,-5.12 12.6,6.17 18.89,19.88 13.63,33.54 -3.15,8.18 -12.27,16.21 -22.3,16.21z"/>
   <path class="fil0" d="M120.67 183.57l10.42 10.77c1.91,-1.23 3.29,-3.01 5.15,-4.82 3.23,-3.16 5.96,-6.47 0.92,-11.52 -6.08,-6.1 -12.79,0.05 -16.49,5.58z"/>
   <path class="fil0" d="M242.63 77.02c0,14.04 14.12,8.7 14.12,3.21 0,-4.26 -1.15,-8.27 -6.58,-8.7 -3.81,-0.3 -7.54,3.23 -7.54,5.49z"/>
  </g>
 </g>
</svg>
