<?xml version="1.0" encoding="UTF-8"?>
<!DOCTYPE svg PUBLIC "-//W3C//DTD SVG 1.1//EN" "http://www.w3.org/Graphics/SVG/1.1/DTD/svg11.dtd">
<!-- Creator: CorelDRAW 2020 (64 Bit) -->
<svg xmlns="http://www.w3.org/2000/svg" xml:space="preserve" width="37.5612mm" height="44.517mm" version="1.1" style="shape-rendering:geometricPrecision; text-rendering:geometricPrecision; image-rendering:optimizeQuality; fill-rule:evenodd; clip-rule:evenodd"
viewBox="0 0 235.85 279.53"
 xmlns:xlink="http://www.w3.org/1999/xlink"
 xmlns:xodm="http://www.corel.com/coreldraw/odm/2003">
 <defs>
  <style type="text/css">
   <![CDATA[
    .fil0 {fill:white}
   ]]>
  </style>
 </defs>
 <g id="Camada_x0020_1">
  <metadata id="CorelCorpID_0Corel-Layer"/>
  <g id="_1431787079808">
   <path class="fil0" d="M221.11 245.13l-2.73 0 0 -61.69 9.28 0 0 55.14c0,4.49 -2.06,6.55 -6.55,6.55zm-126.71 -245.13l47.03 0c6.84,0.02 13.47,6.14 15.29,13.62 0.4,1.64 0.54,2.67 0.54,4.92 -0,3.83 -0.02,7.66 -0.02,11.48 3.22,0.75 10.54,4.83 13.1,6.55 0,-8.16 5.35,-14.74 12.56,-14.74 10.31,0 19.69,-1.84 24.48,5.55 2.79,4.3 2.27,5.87 2.27,12.47 -0,9.83 0,19.65 0,29.48 0,4.34 -0.62,10.16 0.84,13.9 9.82,25.25 7.9,38.2 7.9,65.26 9.02,0 17.47,2.65 17.47,13.1l0 79.71c0,4.34 -3.06,8.2 -5.88,9.95 -4.44,2.77 -7.09,2.06 -13.78,2.06 -0.86,1.79 -1.38,3.34 -2.36,5.28 -5.79,11.52 -19.29,20.92 -32.58,20.92l-126.66 0c-13.29,0 -26.8,-9.4 -32.58,-20.92 -0.98,-1.95 -1.5,-3.49 -2.36,-5.28 -6.68,0 -9.33,0.72 -13.78,-2.06 -2.82,-1.76 -5.88,-5.62 -5.88,-9.95l0 -79.71c0,-10.46 8.45,-13.1 17.47,-13.1 0,-29.77 -2.15,-38.83 8.06,-65.65 1.45,-3.82 0.68,-37.88 0.68,-43.54 -0,-6.6 -0.42,-7.97 2.48,-12.26 1.68,-2.47 5.67,-5.21 9.53,-5.21 11.17,0 18.13,-1.71 23.91,4.48 2.06,2.21 3.39,6.16 3.39,10.26 2.57,-1.72 9.89,-5.8 13.1,-6.55 0,-4.8 -0.45,-12.54 0.63,-16.84 1.09,-4.36 3.24,-7.41 6.84,-10.08 1.9,-1.41 5.26,-3.09 8.31,-3.1zm-68.74 234.76l0 -108.1c15.04,0 16.91,-4.76 18.72,-15.68 2.66,-16.12 7.23,-24.63 16.45,-36.5 4.02,-5.18 10.72,-10.88 16.47,-14.65 22.26,-14.57 50.3,-15.88 74.29,-3.96 21.32,10.59 35.94,31.19 39.8,54.65 1.8,10.92 3.25,16.15 18.8,16.15l0 108.1c0,5.87 -0.45,10.91 -1.97,15.5 -2.64,7.99 -8.93,15.15 -16.65,18.29 -4.58,1.86 -8.87,2.79 -15.23,2.79l-116.83 0c-9.3,0 -20.01,-3.24 -25.2,-9.74 -6.89,-8.61 -8.65,-14.37 -8.65,-26.84zm-17.47 3.82l0 -55.14 9.28 0 0 61.69 -2.73 0c-4.49,0 -6.55,-2.06 -6.55,-6.55zm210.19 -81.35l4.37 0c3.89,0 4.91,3.17 4.91,7.1l0 10.37 -9.28 0 0 -17.47zm-210.19 7.1c0,-3.93 1.02,-7.1 4.91,-7.1l4.37 0 0 17.47 -9.28 0 0 -10.37zm170.88 -122.84c0,-12.13 -0.96,-11.47 15.83,-11.47 7.91,0 6.55,6.46 6.55,14.2 0,7.1 0,14.19 0,21.29 -1.84,-0.67 -9.44,-13.13 -19.66,-20.74 -0.95,-0.71 -2.73,-1.72 -2.73,-3.28zm-144.68 24.02c0,-6.92 0,-13.83 0,-20.75 -0,-15.7 -0.7,-14.74 15.29,-14.74 8.4,0 7.1,4.17 7.1,11.47 0,1.92 -8.35,7.64 -11.6,11.33l-9.01 11.19c-1.24,1.6 -0.04,0.88 -1.77,1.5zm-2.73 52.41l-5.46 0c0,-9.1 2.56,-19.77 5.54,-27.77 3.33,-8.95 10.04,-21.22 16.7,-28.07l5.46 -6.01c1.28,-1.21 1.78,-1.35 3.01,-2.45 16.6,-14.75 37.62,-23.45 61.02,-23.45 24.53,0 46.48,9.8 63.75,25.63 4.99,4.57 13.45,15.54 16.68,22.08 4.58,9.27 4.91,8.43 8.25,20.14 1.61,5.63 3.04,13 3.04,19.89 -10.02,0 -7.76,0.9 -10.96,-14.7 -1.13,-5.5 -3.05,-10.17 -5.1,-15.1 -9.17,-22.08 -31.36,-40.19 -54.79,-46.21 -19.02,-4.88 -38.97,-3.02 -56.54,5.39 -4.77,2.28 -8.44,4.7 -12.7,7.5 -14.75,9.71 -28.69,30.47 -32.38,48.42 -1.08,5.26 -1.52,14.7 -5.5,14.7zm55.69 -91.72c0,-8.47 -1.86,-18.02 10.37,-18.02l40.4 0c12.23,0 10.37,9.55 10.37,18.02 -4.27,-0.09 -22.45,-7.8 -48.19,-2.88 -2.37,0.45 -4.07,0.79 -6.3,1.34 -1.93,0.48 -4.39,1.49 -6.65,1.54z"/>
   <path class="fil0" d="M69.88 205.28c0,-2.34 1.68,-4.37 3.82,-4.37 2.97,0 4.91,1.94 4.91,4.91l0 12.56 -8.74 0 0 -13.1zm-8.73 0.55l0 16.92c0,2.64 1.73,4.37 4.37,4.37l18.02 0c5.55,0 3.82,-13.84 3.82,-19.65 0,-13.37 -8.74,-12.22 -8.74,-15.29l0 -8.73 104.82 0 0 57.33c0,3.32 -2.76,4.37 -6.01,4.37l-119.02 0c-3.25,0 -6.01,-1.05 -6.01,-4.37l0 -57.33 17.47 0 0 9.83c-5.03,1.17 -8.73,6.74 -8.73,12.56zm-8.74 -45.31c0,-1.77 2.37,-3.28 4.37,-3.28l122.29 0c6.19,0 4.37,7.2 4.37,17.47l-131.03 0 0 -14.19zm-8.73 0.55l0 79.16c0,7.46 6.15,13.1 12.01,13.1l124.48 0c5.86,0 12.01,-5.64 12.01,-13.1l0 -79.16c0,-3.84 -2.37,-7.21 -4.48,-9.17 -2.46,-2.28 -5.69,-3.39 -10.26,-3.39l-119.02 0c-8.67,0 -14.74,5.73 -14.74,12.56z"/>
   <path class="fil0" d="M82.98 81.35c0,-9.97 23.59,-15.83 31.12,-15.83 12.72,0 23.2,1.09 34.09,8.5 2.51,1.7 4.67,3.38 4.67,7.34l0 36.58 -69.88 0 0 -36.58zm-8.74 1.64l0 38.76c0,3.54 2.45,4.91 6.01,4.91l75.34 0c3.55,0 6.01,-1.38 6.01,-4.91l0 -38.76c0,-5.46 -1.93,-9.95 -4.68,-12.79 -8.67,-8.97 -27.39,-13.41 -40.09,-13.41 -12.56,0 -30.6,5.86 -37.91,13.41 -2.77,2.86 -4.68,7.38 -4.68,12.79z"/>
   <path class="fil0" d="M100.46 78.62c0,2.76 2.96,4.37 6.01,4.37l22.93 0c8.74,0 6.26,-8.74 2.18,-8.74l-27.3 0c-1.81,0 -3.82,2.54 -3.82,4.37z"/>
  </g>
 </g>
</svg>
